# xmcd
#
# Track frame offsets:
#	150
#	10195
#	21352
#	35312
#	48922
#	58592
#	71475
#	89262
#	99982
#	110400
#	123712
#	135915
#	153097
#	165945
#	176570
#	193067
#	207297
#	222302
#	234217
#	246890
#	261107
#	270990
#	277525
#	296260
#
# Disc length: 4107 seconds
#
# Revision: 0
# Processed by: cddbd v1.5.2PL0 Copyright (c) Steve Scherf et al.
# Submitted via: audiograbber 1.83.01
#
DISCID=3a100918
DTITLE=Various Artist - The Immediate Blues Anthology - CD 1 - Blues Anytime !
DTITLE=and 2
DYEAR=1996
DGENRE=Blues
TTITLE0=John Mayall and The Bluesbreakers - I'm Your Witchdoctor
TTITLE1=Eric Clapton - Snake Drive
TTITLE2=T.S. McPhee - Ain't Gonna Cry No More
TTITLE3=Savoy Brown Blues Band - I Tried
TTITLE4=Eric Clapton - Tribute To Elmore
TTITLE5=Jo-Ann Kelly - I Feel So Good
TTITLE6=John Mayall and The Bluesbreakers - Telephone Blues
TTITLE7=T.S. McPhee - You Don't Love Me
TTITLE8=Eric Clapton - West Coast Idea
TTITLE9=Jo-Ann Kelly - Ain't Seen No Whisky
TTITLE10=Stone's Masonry - Flapjacks
TTITLE11=Savoy Brown Blues Band - Cold Blooded Woman
TTITLE12=John Mayall and The Bluesbreakers - On Top Of The World
TTITLE13=T.S. McPhee - Someone To Love Me
TTITLE14=Savoy Brown Blues Band - Can't Quit You Baby
TTITLE15=Eric Clapton and Jimmy Page - Draggin' My Tail
TTITLE16=Dharma Blues Band - Dealing With The Devil
TTITLE17=Jeremy Spencer - Who's Knocking
TTITLE18=Eric Clapton and Jimmy Page - Freight Loader
TTITLE19=Jeremy Spencer - Look Down At My Woman
TTITLE20=Dharma Blues Band - Roll 'em Pete
TTITLE21=Eric Clapton and Jimmy Page - Choker
TTITLE22=Savoy Brown Blues Band - True Blue
TTITLE23=T.S. McPhee - When You Got A Good Friend
EXTD=
EXTT0=
EXTT1=
EXTT2=
EXTT3=
EXTT4=
EXTT5=
EXTT6=
EXTT7=
EXTT8=
EXTT9=
EXTT10=
EXTT11=
EXTT12=
EXTT13=
EXTT14=
EXTT15=
EXTT16=
EXTT17=
EXTT18=
EXTT19=
EXTT20=
EXTT21=
EXTT22=
EXTT23=
PLAYORDER=
